<svg xmlns="http://www.w3.org/2000/svg" viewBox="0 0 527.24 419.53">
    <style>.col{fill:#fd9f95;}</style>
    <path class="col" d="M177.15,96.9c19.3-14,43.79-22.8,72.5-22.8,7.11,0,21.71,1,35.28,8.09-.63-1.24-1.3-2.43-2-3.57-14.52-9-31.19-10.19-39-10.19-74.74,0-121,59.7-121,115a60.82,60.82,0,0,0,4.92,24.36,23.82,23.82,0,0,0,3.82.86,62.83,62.83,0,0,1-3.07-19.55c0-31.27,14.79-63.94,41.15-86.43Z"/>
    <path class="col" d="M394.93,88.09a85.13,85.13,0,0,1,9.55,39.84c0,26.42-15.07,57.46-39.34,81a150.46,150.46,0,0,1-28.39,21.63c1.4,1.35,5.71,5.65,5.71,5.65a151.16,151.16,0,0,0,28.35-21.61c24.27-23.54,39.34-54.58,39.34-81a85.13,85.13,0,0,0-9.55-39.84,87.78,87.78,0,0,0-17.39-22.94,1.33,1.33,0,0,0-.36-.17A86.33,86.33,0,0,1,394.93,88.09Z"/>
    <path class="col" d="M263.5,173.66q1.88-1.5,3.64-3.14a374.67,374.67,0,0,0-12.23-40.29c-.4-1.08-5.55-6.08-6.44-7a5.69,5.69,0,0,1,.77,1.3A375.13,375.13,0,0,1,263.5,173.66Z"/>
    <path class="col" d="M274.06,267.81c-.68-.47-1.35-.93-2.05-1.37Q271.54,281.25,270,296c-4.75,43.9-15.31,71.26-15.75,72.4a4,4,0,0,1-3.73,2.54s-1.08,0-2.7,0c-10.72,0-47.8,1.54-74.95,21.28a4,4,0,0,1-2.35.76,3.92,3.92,0,0,1-1-.14,4,4,0,0,0,1.47,2.19,3.85,3.85,0,0,0,1.36.64,4,4,0,0,0,6.21,2.22c27.15-19.74,64.23-21.28,74.95-21.28,1.62,0,2.64,0,2.7,0a4,4,0,0,0,3.73-2.54c.44-1.14,11-28.5,15.75-72.4q1.56-14.39,2-28.87A13.08,13.08,0,0,0,274.06,267.81Z"/>
    <path class="col" d="M517.6,352.44c-.4-.36-2.23-2.28-2.84-2.83a9.27,9.27,0,0,0-1.27-1h0a10.82,10.82,0,0,1,1.61,5.89c0,9-8.56,21-21.82,30.61-15.83,11.47-36,17.79-56.8,17.79a111.18,111.18,0,0,1-46.67-10.61c-14.12-6.5-27.65-15.88-40.48-28l0,.06c14.5,14.86,30,26.12,46.19,33.6a111.14,111.14,0,0,0,46.67,10.61c20.8,0,41-6.32,56.8-17.79,13.26-9.61,21.82-21.62,21.82-30.61A10.18,10.18,0,0,0,517.6,352.44Z"/>
    <path class="col" d="M180.16,261.28a87.62,87.62,0,0,1-8.08,10c-15,15.9-34.35,24.66-54.6,24.66-29.92,0-50.4-12.15-63.65-24.89l.08.08c.9.94,1.85,1.89,2.83,2.83,13.1,13.68,34.33,27.65,66.41,27.65,19.86,0,38.88-8.44,53.72-23.77Q178.71,269.33,180.16,261.28Z"/>
    <path class="col" d="M383.6,76.75a85.25,85.25,0,0,1,9.54,39.84c0,26.42-15.07,57.46-39.34,81a150.59,150.59,0,0,1-29.55,22.31c.19,2.66,3.29,5.42,6.5,5.19a151,151,0,0,0,28.72-21.83c24.27-23.54,39.34-54.58,39.34-81a85.13,85.13,0,0,0-9.55-39.84,88,88,0,0,0-17.39-22.94c-.9-.93-1.82-1.86-2.77-2.77A87.39,87.39,0,0,1,383.6,76.75Z"/>
    <path class="col" d="M185.27,218.48a11.78,11.78,0,0,0-1.58-3c-.31-.43-3.27-3.37-6.09-6.16.2.22.35.39.42.49a15.49,15.49,0,0,1,2.62,9.38c0,11.68-8,28-19.9,40.7-15,15.9-34.35,24.66-54.6,24.66-29.92,0-50.4-12.15-63.65-24.89a.6.6,0,0,0,.08.08c.9.94,1.85,1.89,2.83,2.83,13.1,13.68,34.33,27.65,66.41,27.65,20.25,0,39.64-8.76,54.6-24.66a82.45,82.45,0,0,0,17.16-27.17A33.71,33.71,0,0,0,185.27,218.48Z"/>
    <path class="col" d="M278.21,72.09c-15.7-13.39-36.6-15-45.57-15-74.74,0-121,59.7-121,115,0,10.73,2.69,21.32,7.36,29.06a34.9,34.9,0,0,0,2.17,3.19c1.18,2.13,2.71,2.73,3.24,2-4.51-7.7-7.1-18.09-7.1-28.61,0-55.3,46.26-115,121-115,8.37,0,27.14,1.4,42.37,12.48C280.91,73.27,280.13,72.18,278.21,72.09Z"/>
    <path class="col" d="M259.59,176.57c-3.8-19.63-16-57.68-16-57.68-.65-1.28-4-4.75-7-7.76a10.58,10.58,0,0,1,1.36,2.09,375.31,375.31,0,0,1,17.54,66A4,4,0,0,0,259.59,176.57Z"/>
    <path class="col" d="M506.26,341.1a9.29,9.29,0,0,0-1.28-1,9,9,0,0,0-1.55-1.87,10,10,0,0,0-1.28-1h0a10.82,10.82,0,0,1,1.61,5.89c0,9-8.56,21-21.82,30.61-15.83,11.48-36,17.79-56.8,17.79A111.18,111.18,0,0,1,378.47,381c-15.06-6.94-29.45-17.14-43-30.45q1.26,1.28,2.52,2.52c14.5,14.86,30,26.12,46.19,33.6a111.18,111.18,0,0,0,46.67,10.61c20.8,0,41-6.32,56.8-17.79,13.26-9.61,21.82-21.62,21.82-30.61A10.16,10.16,0,0,0,506.26,341.1Z"/>
    <path class="col" d="M268.34,260.87a57.61,57.61,0,0,0-7.67-5.77c-.31,9.87-1,19.74-2.05,29.55-4.75,43.9-15.3,71.26-15.75,72.4a4,4,0,0,1-3.73,2.54s-1.08,0-2.7,0c-10.72,0-47.8,1.54-74.94,21.28a4,4,0,0,1-2.36.76,4,4,0,0,1-1-.14,4,4,0,0,0,1.47,2.19,3.85,3.85,0,0,0,1.36.64,4,4,0,0,0,3.86,3,4,4,0,0,0,2.35-.76c27.15-19.74,64.23-21.28,75-21.28,1.62,0,2.65,0,2.7,0a4,4,0,0,0,3.73-2.54c.44-1.14,11-28.5,15.75-72.4,1.06-9.81,1.74-19.68,2-29.55a54.75,54.75,0,0,1,4.89,3.46A4,4,0,0,0,268.34,260.87Z"/>
    <path class="col" d="M494.92,329.76c-2.06-1.88-4.91-2.83-8.45-2.83l-11.61,0c-35.88,0-55.14-2.32-100.36-54.64l-3-3.45c-23.8-27.55-38.28-44.31-54.5-53.72a150.94,150.94,0,0,0,31.11-23.22c24.27-23.54,39.34-54.58,39.34-81a85.26,85.26,0,0,0-9.54-39.85,91.87,91.87,0,0,0-28.11-31.83c-25.6-18.53-62.72-28.32-107.35-28.32-35.22,0-68.42,5.13-98.69,15.25-28.11,9.4-53.08,22.86-74.2,40C29.47,98.76,6.47,142.4,6.47,185.93c0,19.82,8.68,42.73,22.66,59.78,12.42,15.15,34.87,33.22,71.34,33.22,20.25,0,39.64-8.76,54.6-24.67,11.91-12.66,19.9-29,19.9-40.7a15.49,15.49,0,0,0-2.62-9.38,10.5,10.5,0,0,0-8.88-4.25c-4.37,0-7.38,1.93-10.29,3.8-3.79,2.43-8.08,5.2-17.71,5.2-9.3,0-16.75-4.53-22.14-13.45-4.67-7.74-7.36-18.33-7.36-29,0-55.31,46.26-115,121-115,15.25,0,65,4.61,65,64,0,26-16.44,54.47-40.92,66.08a375.71,375.71,0,0,0-18.82-74,4,4,0,0,0-2.49-2.42c-22.31-7.44-45-8.24-53.66-8.24h0c-1.73,0-2.71,0-2.75,0a4,4,0,0,0-3.71,5.06c23,83.07,25.33,138.75-19.92,268.62a4,4,0,0,0,1.39,4.53,4,4,0,0,0,4.74,0c27.14-19.74,64.22-21.28,74.94-21.28,1.62,0,2.65.05,2.7.05a4,4,0,0,0,3.73-2.55c.45-1.14,11-28.5,15.75-72.4,1.06-9.81,1.74-19.68,2.05-29.55,14.57,9.07,24.4,25.35,35.2,43.23,5.59,9.26,11.37,18.83,18.09,27.68,19.54,25.76,41.24,44.25,64.51,55a111.19,111.19,0,0,0,46.67,10.62c20.8,0,41-6.32,56.8-17.8,13.26-9.6,21.82-21.62,21.82-30.61A10.16,10.16,0,0,0,494.92,329.76Z"/>
    <circle class="col" cx="451.97" cy="266.43" r="34.02"/>
</svg>
