<svg xmlns="http://www.w3.org/2000/svg" viewBox="0 0 500 500">
    <style>
        .c1{fill:#171438;}
        .c2{fill:#fd9f95;}
    </style>
    <rect class="c1" width="500" height="500" rx="40"/>
    <path class="c2" d="M57.55,456.89,40,459V98.35l7.67-8.71L89,84.4l9.88,8.71v92.94l-7.73,8.72-16.71,2L94.73,209.6l4.1,7.43v234.9L81.28,454V221.87l-23.73-15Zm0-350.8v75l23.73-2.85V103.07Z"/>
    <path class="c2" d="M122.06,449.21l-9.83-8.72V206.62l17.56-2.11V430.59l23.72-2.85V187.27l-31.45,3.78-9.83-8.72V89.39L120,80.67l41.28-5,9.82,8.72v351.1l-7.73,8.72Zm7.73-352v75.25l23.72-2.85V94.33Z"/>
    <polygon class="c2" points="194.29 440.53 184.47 431.81 184.47 197.94 202.02 195.83 202.02 421.91 225.75 419.06 225.75 178.59 194.29 182.37 184.47 173.65 184.47 80.75 192.19 72.03 233.47 67.03 243.3 75.75 243.3 146.49 225.75 146.49 225.75 85.66 202.02 88.53 202.02 163.75 233.47 159.97 243.3 168.69 243.3 426.85 235.57 435.57 194.29 440.53"/>
    <path class="c2" d="M266.52,431.85l-9.82-8.71V72l7.73-8.72,41.28-5,9.82,8.71V418.18l-7.73,8.72Zm7.73-352V413.24L298,410.39V77Z"/>
    <polygon class="c2" points="377.94 60 346.49 63.78 346.49 53.52 328.94 55.63 328.94 424.29 346.49 422.18 346.49 81.47 370.21 78.62 370.21 419.33 387.77 417.22 387.77 68.72 377.94 60"/>
    <path class="c2" d="M411,414.5l-9.82-8.72V54.68L408.9,46l41.28-5L460,49.72v92.94l-7.73,8.72-33.55,4V395.88L442.45,393V167L460,164.84v236l-7.73,8.72Zm7.73-352v75.25l23.73-2.85V59.62Z"/>
</svg>
